<?xml version="1.0" standalone="no"?>
<!DOCTYPE svg PUBLIC "-//W3C//DTD SVG 20010904//EN"
 "http://www.w3.org/TR/2001/REC-SVG-20010904/DTD/svg10.dtd">
<svg version="1.0" xmlns="http://www.w3.org/2000/svg"
 width="700.000000pt" height="700.000000pt" viewBox="0 0 700.000000 700.000000"
 preserveAspectRatio="xMidYMid meet">
<metadata>
Created by potrace 1.14, written by Peter Selinger 2001-2017
</metadata>
<g transform="translate(0.000000,700.000000) scale(0.100000,-0.100000)"
fill="#000000" stroke="none">
<path d="M5157 5526 c-21 -8 -55 -26 -75 -40 -20 -14 -690 -680 -1489 -1479
-798 -798 -1475 -1474 -1502 -1502 l-51 -49 -648 646 c-439 438 -660 652 -687
664 -60 29 -185 26 -247 -4 -155 -76 -212 -270 -123 -412 21 -34 1449 -1468
1529 -1537 81 -68 206 -80 310 -29 41 21 369 344 1682 1658 1138 1139 1639
1647 1655 1678 31 60 34 196 5 250 -58 108 -137 161 -250 167 -45 2 -85 -2
-109 -11z"/>
<path d="M6357 4368 c-20 -4 -55 -17 -76 -27 -23 -12 -440 -421 -1045 -1027
l-1007 -1006 -133 132 c-143 142 -163 157 -242 175 -130 31 -260 -32 -326
-157 -17 -34 -22 -59 -22 -123 0 -123 12 -141 295 -422 134 -133 255 -251 269
-261 77 -58 222 -60 312 -3 18 11 538 525 1155 1143 796 798 1128 1136 1144
1168 33 65 33 176 0 245 -60 122 -196 191 -324 163z"/>
</g>
</svg>
